<?xml version="1.0" encoding="UTF-8"?>
<svg id="a" data-name="Calque 1" xmlns="http://www.w3.org/2000/svg" width="730" height="80" viewBox="65 260 730 80">
  <rect id="b" data-name="Rectangle 1053" x="134.417" y="268.469" width="13.738" height="61.03" fill="#003da6"/>
  <g id="c" data-name="Groupe 603">
    <g id="d" data-name="Groupe 602">
      <path id="e" data-name="Tracé 820" d="m195.102,291.666c3.818,4.195,5.727,9.949,5.727,17.262,0,1.13-.027,1.991-.081,2.582h-30.33c.549,2.245,1.826,4.244,3.63,5.687,1.815,1.349,4.032,2.046,6.292,1.977,1.873.002,3.727-.382,5.444-1.13,1.796-.786,3.426-1.908,4.8-3.307l7.502,7.502c-2.252,2.524-5.053,4.497-8.187,5.768-3.452,1.365-7.139,2.037-10.85,1.977-4.25.097-8.459-.845-12.262-2.746-3.388-1.723-6.184-4.42-8.027-7.744-1.913-3.568-2.871-7.569-2.783-11.616-.085-4.116.887-8.184,2.823-11.817,1.828-3.362,4.606-6.111,7.987-7.905,3.684-1.913,7.789-2.869,11.939-2.781,7.099,0,12.556,2.097,16.372,6.292m-8.228,12.18c.105-2.245-.694-4.439-2.219-6.09-3.235-3.049-8.28-3.067-11.536-.041-1.621,1.68-2.678,3.823-3.025,6.131h16.78Z" fill="#003da6"/>
      <path id="f" data-name="Tracé 821" d="m201.473,285.859h16.456l7.016,12.262,7.583-12.262h15.73l-13.791,21.296,14.761,22.349h-16.538l-7.744-13.31-8.628,13.31h-15.813l14.846-22.345-13.88-21.3Z" fill="#003da6"/>
      <rect id="g" data-name="Rectangle 1054" x="255.657" y="285.859" width="13.658" height="43.641" fill="#003da6"/>
      <path id="h" data-name="Tracé 822" d="m295.53,295.216c-1.039-.048-2.071.189-2.986.685-.732.42-1.169,1.214-1.13,2.057.067,1.066.766,1.988,1.774,2.339,1.82.815,3.71,1.462,5.648,1.932,2.645.749,5.244,1.651,7.784,2.702,2.084.898,3.923,2.281,5.364,4.033,1.574,2.006,2.375,4.511,2.259,7.058.154,4.099-1.773,7.998-5.122,10.366-3.415,2.501-7.865,3.751-13.35,3.751-3.609.015-7.199-.515-10.649-1.573-3.267-.986-6.328-2.558-9.034-4.638l4.517-9.277c2.398,1.683,5.018,3.027,7.784,3.993,2.471.897,5.075,1.374,7.704,1.411,1.156.053,2.306-.183,3.349-.685.77-.355,1.259-1.129,1.25-1.977-.034-1.127-.753-2.119-1.814-2.501-1.836-.808-3.739-1.454-5.687-1.932-2.582-.74-5.114-1.642-7.582-2.702-2.02-.91-3.802-2.277-5.203-3.993-1.545-1.973-2.332-4.434-2.218-6.937-.164-4.073,1.711-7.959,5.001-10.366,3.334-2.501,7.636-3.751,12.906-3.751,6.401.005,12.678,1.763,18.15,5.084l-4.84,9.355c-5.646-2.956-10.271-4.435-13.874-4.437" fill="#003da6"/>
      <path id="i" data-name="Tracé 823" d="m386.328,318.077h3.505l1.536,4.805c.617.523,1.268,1.003,1.949,1.438.623.397,1.282.733,1.969,1.005.695.27,1.414.474,2.147.61,2.179.377,4.409.351,6.578-.078,1.14-.237,2.224-.693,3.191-1.342.876-.598,1.592-1.401,2.088-2.339.523-1.051.78-2.214.748-3.387.029-1.091-.311-2.16-.966-3.033-.708-.898-1.569-1.664-2.542-2.265-1.141-.717-2.34-1.336-3.585-1.852-1.339-.564-2.704-1.188-4.096-1.871-1.55-.735-3.067-1.542-4.551-2.422-1.42-.833-2.742-1.824-3.938-2.955-1.12-1.058-2.047-2.305-2.737-3.682-1.22-2.646-1.312-5.675-.256-8.39.447-1.08,1.072-2.077,1.851-2.949.788-.878,1.697-1.641,2.699-2.265,1.032-.647,2.128-1.188,3.269-1.615,1.156-.434,2.349-.763,3.564-.984,1.19-.22,2.395-.346,3.605-.375,1.27-.028,2.54.031,3.801.177,1.154.133,2.298.336,3.427.61.978.236,1.939.539,2.876.906.75.293,1.481.635,2.186,1.024v8.429h-3.349l-1.693-4.411c-.369-.395-.771-.757-1.202-1.083-.453-.34-.942-.631-1.457-.866-.587-.266-1.201-.47-1.83-.61-.763-.166-1.543-.245-2.324-.236-1.172-.01-2.342.116-3.486.374-.988.218-1.928.611-2.777,1.161-.782.519-1.424,1.222-1.871,2.048-.484.938-.733,1.978-.728,3.033-.076,1.1.23,2.192.866,3.091.683.932,1.523,1.738,2.481,2.384,1.117.759,2.296,1.422,3.526,1.982,1.326.617,2.685,1.267,4.077,1.949,1.444.683,2.908,1.385,4.392,2.107,1.431.689,2.774,1.549,3.998,2.561,1.169.969,2.15,2.144,2.895,3.467.779,1.458,1.165,3.094,1.119,4.746.126,3.991-1.76,7.78-5.022,10.083-1.655,1.173-3.51,2.035-5.475,2.542-2.19.578-4.447.863-6.711.848-2.414-.003-4.82-.287-7.168-.847-2.297-.528-4.51-1.37-6.578-2.501v-9.021Z" fill="#003da6"/>
      <path id="j" data-name="Tracé 824" d="m427.607,318.077h3.505l1.54,4.81c.617.523,1.268,1.003,1.949,1.438.623.397,1.282.733,1.969,1.005.695.27,1.414.474,2.147.61,2.179.377,4.409.351,6.578-.078,1.14-.239,2.222-.697,3.188-1.347.876-.598,1.592-1.401,2.088-2.339.523-1.051.78-2.214.748-3.387.029-1.091-.311-2.16-.966-3.033-.708-.898-1.569-1.664-2.542-2.265-1.141-.717-2.34-1.336-3.585-1.852-1.339-.564-2.704-1.188-4.096-1.871-1.55-.735-3.067-1.542-4.55-2.422-1.421-.833-2.742-1.824-3.939-2.955-1.12-1.058-2.047-2.305-2.737-3.682-1.22-2.646-1.312-5.675-.256-8.39.447-1.08,1.072-2.077,1.851-2.949.788-.878,1.697-1.641,2.699-2.265,1.032-.647,2.128-1.188,3.269-1.615,1.156-.434,2.349-.763,3.564-.984,1.19-.22,2.395-.346,3.605-.375,1.27-.028,2.54.031,3.801.177,1.154.133,2.298.336,3.427.61.978.236,1.939.539,2.876.906.75.293,1.481.635,2.186,1.024v8.429h-3.342l-1.693-4.411c-.369-.395-.771-.757-1.202-1.083-.453-.34-.942-.631-1.457-.866-.587-.266-1.201-.47-1.83-.61-.763-.166-1.543-.245-2.324-.236-1.172-.01-2.342.116-3.486.374-.988.218-1.928.611-2.777,1.161-.782.519-1.424,1.223-1.871,2.048-.484.938-.733,1.978-.728,3.033-.076,1.1.23,2.192.866,3.091.683.932,1.523,1.738,2.481,2.384,1.115.759,2.292,1.422,3.519,1.982,1.326.617,2.685,1.267,4.077,1.949,1.444.683,2.908,1.385,4.392,2.107,1.431.689,2.774,1.549,3.998,2.561,1.169.969,2.15,2.144,2.895,3.467.779,1.458,1.165,3.094,1.119,4.746.126,3.991-1.761,7.779-5.022,10.083-1.655,1.173-3.51,2.035-5.475,2.542-2.19.578-4.447.863-6.711.848-2.414-.003-4.82-.287-7.168-.847-2.297-.529-4.51-1.37-6.578-2.501v-9.021Z" fill="#003da6"/>
      <path id="k" data-name="Tracé 825" d="m470.697,291.018l-4.057-1.182v-3.033l10.122-2.166,1.379.712v27.135c-.02,1.877.099,3.753.355,5.612.166,1.363.608,2.678,1.3,3.864.615.998,1.523,1.782,2.6,2.245,1.353.531,2.801.779,4.254.728,1.179,0,2.352-.165,3.485-.492,1.093-.31,2.16-.705,3.191-1.182.9-.411,1.763-.899,2.58-1.458.581-.385,1.122-.828,1.615-1.322v-29.108l-4.924-1.26v-3.23l11.265-2.245,1.103.669v40.845h4.726v2.994c-.469.242-.956.446-1.457.61-.578.197-1.201.375-1.871.532s-1.352.288-2.048.394c-.658.102-1.323.155-1.989.158-1.053.059-2.096-.224-2.974-.807-.764-.629-1.169-1.594-1.083-2.58v-3.229c-2.131,1.899-4.56,3.436-7.188,4.55-2.322.998-4.819,1.527-7.346,1.556-2.498.128-4.988-.366-7.247-1.438-1.672-.895-3.027-2.284-3.88-3.977-.904-1.883-1.439-3.922-1.575-6.007-.197-2.31-.308-4.831-.335-7.563v-20.325Z" fill="#003da6"/>
      <path id="l" data-name="Tracé 826" d="m517.096,326.151l6.381-.827v-32.061l-5.593-3.072v-2.441l10.398-3.112,1.852.787v6.065c.638-.88,1.401-1.663,2.265-2.324,1.063-.848,2.204-1.593,3.408-2.225,1.26-.67,2.579-1.224,3.939-1.654,1.247-.414,2.55-.634,3.864-.65.866,0,1.646.019,2.339.058.5.009.996.082,1.478.218v8.075c-.42-.157-.854-.322-1.3-.493-.481-.181-.975-.325-1.478-.432-.605-.13-1.216-.228-1.83-.296-.785-.086-1.575-.128-2.365-.124-1.819-.049-3.633.225-5.357.807-1.39.511-2.723,1.164-3.978,1.949v30.801l11.225.945v3.349h-25.247v-3.344Z" fill="#003da6"/>
      <path id="m" data-name="Tracé 827" d="m553.688,316.816c.146-1.738.758-3.405,1.772-4.824,1.015-1.397,2.268-2.604,3.702-3.565,1.526-1.026,3.173-1.859,4.903-2.481,1.768-.647,3.578-1.174,5.417-1.575,1.728-.381,3.477-.657,5.238-.828,1.68-.157,3.137-.236,4.373-.236v-3.427c.061-1.725-.22-3.445-.827-5.061-.478-1.201-1.267-2.254-2.285-3.051-1.013-.753-2.186-1.265-3.427-1.497-1.402-.271-2.827-.403-4.255-.394-.858.008-1.714.081-2.561.218-.988.153-1.968.357-2.935.61-1.011.263-2.028.578-3.051.946-.993.354-1.965.762-2.914,1.22l-1.457-3.545c1.085-.854,2.285-1.55,3.564-2.067,1.408-.592,2.856-1.086,4.333-1.477,1.424-.382,2.871-.671,4.332-.866,1.195-.168,2.399-.26,3.605-.276,1.994-.009,3.983.209,5.927.65,1.794.394,3.481,1.174,4.943,2.285,1.476,1.164,2.634,2.682,3.368,4.412.9,2.245,1.323,4.652,1.241,7.069l-.078,27.099h5.042v2.599c-1.077.556-2.223.966-3.408,1.22-1.336.313-2.704.472-4.077.473-.513-.004-1.026-.038-1.536-.102-.534-.061-1.05-.228-1.517-.493-.487-.292-.883-.715-1.142-1.22-.337-.713-.492-1.498-.453-2.285v-1.102c-.634.764-1.354,1.451-2.147,2.048-.878.66-1.83,1.215-2.836,1.654-1.163.503-2.378.873-3.624,1.102-1.487.274-2.997.406-4.51.394-1.915.027-3.813-.349-5.574-1.102-4.906-2.118-7.821-7.225-7.149-12.526m7.641.158c-.035,1.341.179,2.676.63,3.939.376,1.015,1.006,1.917,1.83,2.618.857.699,1.86,1.197,2.935,1.458,1.275.316,2.586.468,3.9.453.811-.003,1.618-.108,2.403-.314.798-.205,1.579-.469,2.339-.788.725-.303,1.423-.665,2.088-1.083.561-.343,1.082-.746,1.556-1.202,0-2.468.006-4.916.019-7.346.013-2.43.033-4.878.06-7.346-1.103,0-2.311.059-3.624.177-1.325.12-2.64.324-3.939.61-1.3.285-2.577.667-3.82,1.142-1.17.437-2.271,1.041-3.269,1.792-.916.689-1.686,1.553-2.266,2.542-.577,1.02-.869,2.177-.846,3.349" fill="#003da6"/>
      <path id="n" data-name="Tracé 828" d="m599.575,326.151l5.357-.788v-32.101l-5.593-3.072v-2.441l10.474-3.112,1.772.787v5.633c1.011-.844,2.091-1.602,3.23-2.265,1.293-.764,2.635-1.442,4.018-2.029,1.418-.603,2.879-1.097,4.373-1.477,1.391-.365,2.817-.583,4.254-.65,2.088-.133,4.18.168,6.145.886,1.64.657,3.041,1.798,4.018,3.269,1.123,1.766,1.874,3.743,2.206,5.809.483,2.81.707,5.658.669,8.508v22.252l6.341.788v3.348h-19.85v-3.348l5.948-.827v-20.837c.017-2.107-.102-4.213-.355-6.305-.161-1.575-.636-3.103-1.398-4.491-.664-1.153-1.678-2.063-2.895-2.599-1.54-.601-3.197-.844-4.844-.712-1.764.107-3.502.472-5.16,1.083-2.025.756-3.944,1.769-5.711,3.014v30.845l5.868.827v3.349h-18.866v-3.348Z" fill="#003da6"/>
      <path id="o" data-name="Tracé 829" d="m653.265,308.308c-.074-3.341.473-6.667,1.615-9.808,1.013-2.768,2.558-5.31,4.549-7.483,1.915-2.065,4.234-3.714,6.813-4.845,2.67-1.169,5.536-1.824,8.449-1.932,1.103-.026,2.226-.006,3.368.059,1.082.059,2.16.177,3.23.355.939.154,1.867.371,2.777.65.719.209,1.407.513,2.045.904v9.457h-3.742l-2.008-4.962c-.443-.355-.934-.646-1.457-.866-.55-.235-1.116-.433-1.693-.591-.567-.155-1.145-.267-1.729-.335-.523-.063-1.049-.097-1.575-.102-1.729-.006-3.442.328-5.042.984-1.619.668-3.071,1.684-4.255,2.974-1.309,1.453-2.312,3.154-2.949,5.002-.78,2.275-1.166,4.666-1.142,7.07-.093,3.108.333,6.21,1.26,9.177.719,2.279,1.869,4.399,3.387,6.244,1.262,1.516,2.851,2.728,4.647,3.545,1.584.72,3.302,1.101,5.042,1.119,1.067-.002,2.132-.068,3.191-.196,1.103-.131,2.166-.3,3.19-.508.961-.193,1.909-.449,2.836-.769.735-.244,1.447-.553,2.126-.925l1.339,3.505c-.851.741-1.807,1.351-2.836,1.812-1.201.551-2.446.999-3.723,1.339-1.398.376-2.819.659-4.254.847-1.483.196-2.978.295-4.474.295-2.781.056-5.54-.51-8.075-1.654-2.297-1.071-4.323-2.646-5.928-4.607-1.669-2.07-2.919-4.445-3.682-6.992-.864-2.841-1.302-5.794-1.3-8.763" fill="#003da6"/>
      <path id="p" data-name="Tracé 830" d="m694.224,307.599c-.033-3.169.508-6.318,1.595-9.295.993-2.72,2.505-5.222,4.451-7.366,1.928-2.091,4.268-3.761,6.873-4.903,2.797-1.22,5.81-1.87,8.862-1.91,2.133-.081,4.262.26,6.263,1.005,1.814.689,3.445,1.788,4.765,3.21,1.368,1.509,2.419,3.277,3.092,5.199.784,2.244,1.216,4.596,1.279,6.972.056,1.432.022,2.866-.102,4.293-.119,1.208-.243,2.285-.374,3.23h-29.185v.453c0,.152.014.303.04.453.005,2.708.554,5.387,1.615,7.878.838,1.895,2.082,3.582,3.643,4.943,1.404,1.193,3.05,2.066,4.825,2.559,1.679.475,3.415.72,5.16.729,1.079-.003,2.157-.062,3.23-.178,1.104-.113,2.202-.283,3.289-.508.997-.206,1.984-.463,2.955-.769.757-.226,1.49-.529,2.185-.905l1.457,3.348c-.891.765-1.894,1.389-2.974,1.851-1.291.577-2.628,1.044-3.997,1.398-1.489.389-3.002.679-4.529.866-1.529.194-3.068.292-4.608.295-2.9.055-5.779-.502-8.449-1.634-2.392-1.042-4.514-2.618-6.203-4.607-1.751-2.113-3.058-4.558-3.841-7.188-.916-3.052-1.362-6.227-1.322-9.413m29.147-4.215c.079-1.339.099-2.685.06-4.038-.033-1.301-.198-2.596-.492-3.864-.272-1.175-.718-2.303-1.322-3.347-.583-1.002-1.401-1.847-2.384-2.462-.714-.46-1.499-.799-2.324-1.004-.967-.235-1.959-.348-2.954-.336-1.464,0-2.913.28-4.271.827-1.422.583-2.689,1.488-3.702,2.644-1.189,1.376-2.117,2.958-2.737,4.667-.803,2.225-1.28,4.554-1.418,6.915l21.544-.003Z" fill="#003da6"/>
      <path id="q" data-name="Tracé 831" d="m742.002,318.077h3.505l1.536,4.805c.617.523,1.268,1.003,1.95,1.438.623.397,1.282.734,1.969,1.005.695.27,1.413.474,2.147.61,2.179.377,4.409.351,6.578-.078,1.14-.237,2.223-.693,3.19-1.342.876-.598,1.592-1.401,2.087-2.339.523-1.051.78-2.214.748-3.387.029-1.091-.311-2.16-.965-3.033-.708-.898-1.569-1.664-2.542-2.265-1.141-.717-2.34-1.336-3.585-1.852-1.339-.564-2.704-1.188-4.096-1.871-1.55-.735-3.066-1.542-4.55-2.422-1.421-.833-2.742-1.824-3.939-2.955-1.12-1.058-2.047-2.305-2.737-3.682-1.22-2.646-1.312-5.675-.256-8.39.447-1.08,1.073-2.077,1.852-2.949.788-.878,1.696-1.641,2.698-2.265,1.032-.647,2.127-1.188,3.268-1.615,1.157-.434,2.35-.763,3.565-.984,1.189-.22,2.394-.346,3.604-.375,1.27-.028,2.54.031,3.801.177,1.153.133,2.298.336,3.426.61.978.236,1.939.539,2.876.906.75.293,1.481.635,2.186,1.024v8.429h-3.349l-1.693-4.411c-.369-.395-.771-.757-1.202-1.083-.453-.341-.942-.631-1.457-.866-.588-.266-1.201-.47-1.83-.61-.763-.166-1.543-.245-2.324-.236-1.172-.01-2.342.116-3.486.374-.988.218-1.928.611-2.777,1.161-.782.519-1.424,1.222-1.87,2.048-.484.938-.734,1.978-.729,3.033-.076,1.099.23,2.191.866,3.091.683.932,1.523,1.738,2.481,2.384,1.118.759,2.298,1.422,3.529,1.982,1.325.617,2.684,1.267,4.076,1.949,1.445.683,2.909,1.385,4.392,2.107,1.431.689,2.774,1.548,3.998,2.561,1.168.969,2.15,2.144,2.895,3.467.779,1.458,1.164,3.094,1.119,4.746.126,3.991-1.76,7.78-5.022,10.083-1.655,1.173-3.51,2.035-5.474,2.542-2.19.578-4.447.863-6.711.848-2.414-.003-4.82-.288-7.168-.848-2.297-.529-4.51-1.37-6.578-2.501v-9.02Z" fill="#003da6"/>
    </g>
  </g>
  <path id="r" data-name="Tracé 832" d="m344.588,268.469l13.985,37.874h-10.245l1.949,5.295h10.246l4.952,13.433-7.059,1.001v3.425h21.704v-3.426l-6.905-.997h-.026l-20.885-56.605h-7.717Z" fill="#003da6"/>
  <path id="s" data-name="Tracé 833" d="m98.06,285.801h.184l6.718,20.541h-13.512l6.611-20.541Zm-6.769-17.358l-22.363,61.057h15.041l3.53-10.931h21.415l3.609,10.931h15.04l-22.521-61.057h-13.749Z" fill="#003da6"/>
  <g id="t" data-name="Groupe 605">
    <g id="u" data-name="Groupe 604">
      <path id="v" data-name="Tracé 834" d="m269.315,275.263c0-3.771-3.057-6.828-6.828-6.828s-6.828,3.057-6.828,6.828,3.057,6.828,6.828,6.828h0c3.771,0,6.828-3.057,6.828-6.828" fill="#003da6"/>
    </g>
  </g>
</svg>